<svg xmlns="http://www.w3.org/2000/svg" viewBox="0 0 24 24">

    <path fill="none" stroke="white" stroke-width="2" d="
        M8,6
        L16,6
        A2,2,45,0,1,18,8
        L18,16
        A2,2,45,0,1,16,18
        L8,18
        A2,2,45,0,1,6,16
        L6,8
        A2,2,45,0,1,8,6
        M8,6
        L8,3
        M12,6
        L12,3
        M16,6
        L16,3
        M18,8
        L21,8
        M18,12
        L21,12
        M18,16
        L21,16
        M8,18
        L8,21
        M12,18
        L12,21
        M16,18
        L16,21
        M6,8
        L3,8
        M6,12
        L3,12
        M6,16
        L3,16" />
    <path fill="white" stroke="none" stroke-width=2 d="M10,10
        M10,9
        L14,9
        A1,1,45,0,1,15,10
        L15,14
        A1,1,45,0,1,14,15
        L10,15
        A1,1,45,0,1,9,14
        L9,10
        A1,1,45,0,1,10,9" />
</svg>